<svg
xmlns="http://www.w3.org/2000/svg"
xmlns:xlink="http://www.w3.org/1999/xlink"
width="21px" height="37px">
<path fill-rule="evenodd"  fill="rgb(253, 253, 253)"
d="M18.047,19.437 C18.047,19.437 14.699,15.819 15.411,17.592 C16.124,19.365 18.837,26.815 18.837,26.815 C18.837,26.815 19.941,27.681 16.729,28.396 C14.994,28.865 14.094,28.923 14.094,28.923 C14.094,28.923 13.269,37.560 10.932,36.829 C11.103,36.879 8.638,37.705 7.770,29.187 C6.030,28.913 1.743,28.339 3.553,26.025 C4.663,23.144 6.575,17.739 6.452,16.802 C5.161,17.860 2.381,22.342 0.918,18.646 C0.918,18.646 2.912,10.823 10.668,9.423 C11.624,9.444 16.285,9.270 20.418,17.065 C20.836,18.305 20.518,21.285 18.047,19.437 ZM10.405,8.369 C8.222,8.369 6.452,6.599 6.452,4.416 C6.452,2.233 8.222,0.464 10.405,0.464 C12.588,0.464 14.357,2.233 14.357,4.416 C14.357,6.599 12.588,8.369 10.405,8.369 Z"/>
</svg>