<svg
xmlns="http://www.w3.org/2000/svg"
xmlns:xlink="http://www.w3.org/1999/xlink"
width="21px" height="38px">
<path fill-rule="evenodd"  fill="rgb(253, 253, 253)"
d="M19.628,19.964 C17.818,20.772 15.411,17.065 15.411,17.065 L17.520,35.511 C17.520,35.511 17.785,36.773 16.202,37.092 C13.332,37.795 11.803,27.569 10.668,26.288 C10.668,26.288 7.042,36.275 6.189,36.829 C5.336,37.382 3.428,37.144 3.553,34.984 C3.679,32.824 6.098,17.478 5.925,17.065 C5.925,17.065 3.064,19.920 2.763,19.964 C2.462,20.007 1.698,20.172 1.182,19.700 C1.182,19.700 0.195,18.925 0.655,17.592 C1.115,16.259 5.330,9.110 10.668,9.423 C15.407,9.149 22.632,18.180 19.628,19.964 ZM10.405,8.369 C8.222,8.369 6.452,6.599 6.452,4.416 C6.452,2.233 8.222,0.464 10.405,0.464 C12.588,0.464 14.357,2.233 14.357,4.416 C14.357,6.599 12.588,8.369 10.405,8.369 Z"/>
</svg>